<?xml version="1.0" encoding="UTF-8"?>
<svg width="20px" height="23px" viewBox="0 0 20 23" version="1.1" xmlns="http://www.w3.org/2000/svg" xmlns:xlink="http://www.w3.org/1999/xlink">
    <!-- Generator: Sketch 52.4 (67378) - http://www.bohemiancoding.com/sketch -->
    <title>Group 9</title>
    <desc>Created with Sketch.</desc>
    <g id="Designs" stroke="none" stroke-width="1" fill="none" fill-rule="evenodd">
        <g id="Page"></g>
        <g id="Group-9" fill="#B6B6B6" fill-rule="nonzero">
            <path d="M17.1666667,8.01007603 L15.8493732,6.30577188 L16.6405838,5.69422812 L19.8333333,9.8249829 L19.8333333,18.7140797 C19.8333333,19.7829086 18.9982289,20.6666667 17.9605054,20.6666667 C16.9233138,20.6666667 16.0883548,19.7827618 16.0883548,18.7140797 L16.0883548,14.744201 C16.0883548,14.2004112 15.6771355,13.765086 15.1911452,13.765086 L14.0727856,13.765086 L14.0727856,19.5743056 L14.7856732,19.5743056 C15.2714954,19.5743056 15.6666667,19.9668617 15.6666667,20.4527778 L15.6666667,22.3333333 L0.5,22.3333333 L0.5,20.4541667 C0.5,19.9675562 0.895870361,19.5743056 1.38239164,19.5743056 L2.09318201,19.5743056 L2.09318201,3.11111111 C2.09318201,1.66894507 3.26991428,0.5 4.71835677,0.5 L11.4476108,0.5 C12.8965362,0.5 14.0727856,1.66873084 14.0727856,3.11111111 L14.0727856,12.765086 L15.1911452,12.765086 C16.2425595,12.765086 17.0883548,13.6604624 17.0883548,14.744201 L17.0883548,18.7140797 C17.0883548,19.242813 17.4887377,19.6666667 17.9605054,19.6666667 C18.4328856,19.6666667 18.8333333,19.2428887 18.8333333,18.7140797 L18.8333333,12.3333333 L17.1666667,12.3333333 L17.1666667,8.01007603 Z M18.1666667,9.30386834 L18.1666667,11.3333333 L18.8333333,11.3333333 L18.8333333,10.1663966 L18.1666667,9.30386834 Z M13.0727856,20.5743056 L13.0727856,3.11111111 C13.0727856,2.22245614 12.3456819,1.5 11.4476108,1.5 L4.71835677,1.5 C3.82071817,1.5 3.09318201,2.22272159 3.09318201,3.11111111 L3.09318201,20.5743056 L1.5,20.5743056 L1.5,21.3333333 L14.6666667,21.3333333 L14.6666667,20.5743056 L13.0727856,20.5743056 Z" id="Combined-Shape"></path>
            <path d="M9.72061995,8.83333333 C10.1418005,8.83333333 10.5,8.45417692 10.5,7.97863446 L10.5,4.85469887 C10.5,4.37956416 10.1415389,4 9.72061995,4 L6.44604672,4 C6.02512774,4 5.66666667,4.37956416 5.66666667,4.85469887 L5.66666667,7.97863446 C5.66666667,8.45417692 6.02486618,8.83333333 6.44604672,8.83333333 L9.72061995,8.83333333 Z M9.72061995,9.83333333 L6.44604672,9.83333333 C5.45946788,9.83333333 4.66666667,8.99414832 4.66666667,7.97863446 L4.66666667,4.85469887 C4.66666667,3.83966482 5.45964764,3 6.44604672,3 L9.72061995,3 C10.707019,3 11.5,3.83966482 11.5,4.85469887 L11.5,7.97863446 C11.5,8.99414832 10.7071988,9.83333333 9.72061995,9.83333333 Z" id="Stroke-3"></path>
        </g>
    </g>
</svg>